<svg width="32" height="30" viewBox="0 0 32 30" fill="none" xmlns="http://www.w3.org/2000/svg">
  <path d="M25.3334 3.33333H6.66671C4.83337 3.33333 3.33337 4.83333 3.33337 6.66667V25.3333C3.33337 27.1667 4.83337 28.6667 6.66671 28.6667H25.3334C27.1667 28.6667 28.6667 27.1667 28.6667 25.3333V6.66667C28.6667 4.83333 27.1667 3.33333 25.3334 3.33333ZM25.3334 25.3333H6.66671V10H25.3334V25.3333ZM11.6667 1.66667H15.0001V6.66667H11.6667V1.66667ZM16.6667 1.66667H20.0001V6.66667H16.6667V1.66667Z" fill="#CCCCCC"/>
  <path d="M10 15H13.3333V18.3333H10V15ZM14.1667 15H17.5V18.3333H14.1667V15ZM18.3333 15H21.6667V18.3333H18.3333V15ZM10 19.1667H13.3333V22.5H10V19.1667ZM14.1667 19.1667H17.5V22.5H14.1667V19.1667Z" fill="#CCCCCC"/>
</svg> 