<svg width="37" height="25" viewBox="0 0 37 25" fill="none" xmlns="http://www.w3.org/2000/svg">
  <path d="M12.3333 12.5C14.9108 12.5 17 10.4108 17 7.83333C17 5.25584 14.9108 3.16667 12.3333 3.16667C9.75584 3.16667 7.66667 5.25584 7.66667 7.83333C7.66667 10.4108 9.75584 12.5 12.3333 12.5ZM12.3333 15.6667C8.93667 15.6667 2.16667 17.375 2.16667 20.75V22.3333C2.16667 23.2 2.87667 23.9167 3.75 23.9167H20.9167C21.79 23.9167 22.5 23.2 22.5 22.3333V20.75C22.5 17.375 15.73 15.6667 12.3333 15.6667Z" fill="#CCCCCC"/>
  <path d="M25.5833 7.83333C25.5833 10.4108 27.6725 12.5 30.25 12.5C32.8275 12.5 34.9167 10.4108 34.9167 7.83333C34.9167 5.25584 32.8275 3.16667 30.25 3.16667C27.6725 3.16667 25.5833 5.25584 25.5833 7.83333Z" fill="#CCCCCC"/>
  <path d="M30.25 15.6667C26.8533 15.6667 20.0833 17.375 20.0833 20.75V22.3333C20.0833 23.2 20.7933 23.9167 21.6667 23.9167H38.8333C39.7067 23.9167 40.4167 23.2 40.4167 22.3333V20.75C40.4167 17.375 33.6467 15.6667 30.25 15.6667Z" fill="#CCCCCC"/>
</svg> 