<svg width="100" height="26" viewBox="0 0 100 26" fill="none" xmlns="http://www.w3.org/2000/svg">
  <path d="M37.6234 7.39282H32.5343C32.1863 7.39282 31.8891 7.62813 31.8214 7.96736L29.3503 23.0256C29.302 23.2703 29.4856 23.4957 29.735 23.4957H32.1572C32.5052 23.4957 32.8024 23.2604 32.8701 22.9211L33.4493 19.4121C33.5169 19.0728 33.814 18.8375 34.1621 18.8375H35.9441C39.4469 18.8375 41.4087 17.2197 41.8736 13.9323C42.0765 12.4863 41.8058 11.3733 41.0748 10.6204C40.2762 9.79808 39.1118 7.39282 37.6234 7.39282ZM38.2027 14.1193C37.9417 16.0211 36.5306 16.0211 35.1681 16.0211H34.3598L34.9196 12.6441C34.9582 12.4383 35.1391 12.2907 35.3493 12.2907H35.7167C36.6527 12.2907 37.5403 12.2907 37.9948 12.7765C38.2847 13.0575 38.3137 13.4849 38.2027 14.1193Z" fill="#28356A"/>
  <path d="M57.2973 14.0708H54.8654C54.6552 14.0708 54.4742 14.2184 54.4357 14.4243L54.3054 15.1577L54.0929 14.8671C53.517 14.0655 52.3174 13.8089 51.123 13.8089C48.4364 13.8089 46.1752 15.8108 45.7781 18.5959C45.5717 19.9933 45.9173 21.3324 46.7353 22.2512C47.4856 23.1022 48.5531 23.4414 49.8135 23.4414C51.9358 23.4414 53.0968 22.0633 53.0968 22.0633L52.9664 22.7968C52.9182 23.0414 53.1018 23.2669 53.3511 23.2669H55.5607C55.9087 23.2669 56.2059 23.0315 56.2735 22.6923L57.6817 14.5406C57.7299 14.2959 57.5466 14.0708 57.2973 14.0708ZM53.8923 18.6445C53.6859 19.9933 52.5928 20.9027 51.2227 20.9027C50.5369 20.9027 49.9803 20.6847 49.6287 20.2573C49.2799 19.8347 49.1464 19.2203 49.2491 18.5374C49.4361 17.1984 50.5551 16.2598 51.8973 16.2598C52.5637 16.2598 53.1203 16.4778 53.479 16.9053C53.833 17.3374 53.9891 17.9566 53.8923 18.6445Z" fill="#28356A"/>
  <path d="M74.2134 14.0708H71.7711C71.5319 14.0708 71.307 14.1801 71.1652 14.3641L67.718 19.0966L66.2103 14.5209C66.1064 14.2473 65.8513 14.0708 65.5651 14.0708H63.1747C62.9001 14.0708 62.7137 14.3397 62.8046 14.5991L65.5808 21.6911L62.9913 25.1951C62.8046 25.4498 62.9854 25.8068 63.296 25.8068H65.7332C65.9696 25.8068 66.1918 25.7001 66.3336 25.521L74.5225 14.6817C74.7038 14.4295 74.5202 14.0708 74.2134 14.0708Z" fill="#28356A"/>
  <path d="M82.8035 7.39282H77.7143C77.3663 7.39282 77.0691 7.62813 77.0015 7.96736L74.5304 23.0256C74.4821 23.2703 74.6658 23.4957 74.9151 23.4957H77.5045C77.7424 23.4957 77.9442 23.323 77.9797 23.0862L78.6083 19.4121C78.6759 19.0728 78.973 18.8375 79.3211 18.8375H81.1031C84.6059 18.8375 86.5676 17.2197 87.0326 13.9323C87.2354 12.4863 86.9648 11.3733 86.2338 10.6204C85.4352 9.79808 84.2708 7.39282 82.8035 7.39282ZM83.3828 14.1193C83.1218 16.0211 81.7107 16.0211 80.3481 16.0211H79.5399L80.0996 12.6441C80.1382 12.4383 80.3192 12.2907 80.5294 12.2907H80.8968C81.8327 12.2907 82.7204 12.2907 83.1748 12.7765C83.4648 13.0575 83.4937 13.4849 83.3828 14.1193Z" fill="#139AD6"/>
  <path d="M96.4564 14.0708H94.0245C93.8143 14.0708 93.6333 14.2184 93.5948 14.4243L93.4645 15.1577L93.252 14.8671C92.6761 14.0655 91.4765 13.8089 90.2821 13.8089C87.5955 13.8089 85.3343 15.8108 84.9372 18.5959C84.7307 19.9933 85.0764 21.3324 85.8944 22.2512C86.6447 23.1022 87.7121 23.4414 88.9726 23.4414C91.0949 23.4414 92.2559 22.0633 92.2559 22.0633L92.1255 22.7968C92.0773 23.0414 92.2609 23.2669 92.5102 23.2669H94.7198C95.0678 23.2669 95.365 23.0315 95.4326 22.6923L96.8408 14.5406C96.889 14.2959 96.7057 14.0708 96.4564 14.0708ZM93.0514 18.6445C92.845 19.9933 91.7519 20.9027 90.3818 20.9027C89.696 20.9027 89.1394 20.6847 88.7878 20.2573C88.439 19.8347 88.3055 19.2203 88.4082 18.5374C88.5952 17.1984 89.7141 16.2598 91.0564 16.2598C91.7227 16.2598 92.2794 16.4778 92.6381 16.9053C92.9868 17.3374 93.1429 17.9566 93.0514 18.6445Z" fill="#139AD6"/>
  <path d="M98.8183 7.7369L96.3223 23.0256C96.2741 23.2703 96.4577 23.4957 96.707 23.4957H98.8311C99.1791 23.4957 99.4763 23.2604 99.5439 22.9211L102.015 7.86287C102.063 7.61815 101.88 7.39282 101.63 7.39282H99.2027C98.9925 7.39282 98.8115 7.54047 98.8183 7.7369Z" fill="#139AD6"/>
  <path d="M10.8218 24.2581L11.1704 22.0242L10.4173 21.9999H4.66641L7.87874 3.57634C7.88561 3.53287 7.9062 3.49236 7.94051 3.46452C7.97483 3.43668 8.01593 3.42285 8.05673 3.42285H16.1025C19.1941 3.42285 21.1862 4.11252 21.9849 5.45797C22.3519 6.06637 22.5118 6.64693 22.4723 7.26301C22.4297 7.91886 22.2221 8.65102 21.8551 9.44348L21.8138 9.53028V10.0692L22.2256 10.3135C22.577 10.5093 22.857 10.7342 23.0698 10.9881C23.395 11.3861 23.6025 11.8959 23.6882 12.5002C23.7774 13.1229 23.735 13.8405 23.5622 14.6281C23.3655 15.5159 23.0559 16.2795 22.6421 16.8976C22.2627 17.4673 21.7764 17.9378 21.1983 18.2962C20.6431 18.6423 19.9806 18.9006 19.2332 19.063C18.5159 19.2206 17.707 19.3028 16.8211 19.3028H16.1405C15.6396 19.3028 15.153 19.4749 14.7672 19.7964C14.3814 20.1228 14.1287 20.5744 14.0517 21.0697L14.0141 21.2859L13.3923 25.1465L13.3636 25.3136C13.3567 25.3619 13.3414 25.386 13.3199 25.4018C13.2995 25.4186 13.2734 25.4296 13.2483 25.4296H10.8218V24.2581Z" fill="#28356A"/>
  <path d="M22.8999 12.5976C22.8921 12.6458 22.8836 12.6945 22.8745 12.7441C22.1078 17.1209 19.1941 18.5466 15.5033 18.5466H13.4039C12.7708 18.5466 12.2424 18.9962 12.1572 19.6242L11.3134 24.9141L11.0688 26.5514C11.0296 26.8446 11.2505 27.1035 11.5439 27.1035H14.567C15.1213 27.1035 15.5845 26.7144 15.6591 26.1623L15.7045 25.9658L16.3217 22.1341L16.3786 21.8847C16.4523 21.3316 16.9165 20.9425 17.4708 20.9425H18.2125C21.4351 20.9425 23.9844 19.7183 24.6552 15.8732C24.9284 14.284 24.8067 12.9677 24.0524 12.0209C23.7328 11.6145 23.3227 11.3079 22.8999 11.0975V12.5976Z" fill="#139AD6"/>
  <path d="M21.6787 10.7392C21.5232 10.6941 21.3635 10.6539 21.1994 10.6177C21.0331 10.5825 20.8625 10.5512 20.6877 10.5239C20.1553 10.4386 19.5744 10.3973 18.95 10.3973H13.4387C13.2745 10.3973 13.1206 10.4325 12.9826 10.4965C12.6914 10.6314 12.4658 10.8882 12.4005 11.2191L11.3958 17.4219L11.1572 19.6242C11.2424 18.9963 11.7708 18.5467 12.4039 18.5467H14.5033C18.1942 18.5467 21.1079 17.1209 21.8746 12.7442C21.8837 12.6946 21.8921 12.6458 22 12.5977C21.8076 12.0258 21.5128 11.5772 21.1025 11.2239C21.0004 11.1423 20.8908 11.0673 20.7746 10.999C20.7452 10.9814 20.7154 10.9634 20.685 10.9459C21.0382 11.1889 21.3312 11.4835 21.5624 11.8317C21.6051 11.8854 21.6436 11.9429 21.6787 12.0019V10.7392Z" fill="#283B82"/>
  <path d="M12.4005 11.2188C12.4658 10.8878 12.6914 10.631 12.9827 10.496C13.1207 10.4321 13.2745 10.3969 13.4387 10.3969H18.95C19.5744 10.3969 20.1553 10.4382 20.6877 10.5235C20.8626 10.5508 21.0331 10.5821 21.1995 10.6173C21.3636 10.6535 21.5233 10.6937 21.6787 10.7388C21.7713 10.7656 21.8619 10.7943 21.9493 10.8251C22.2222 10.9197 22.4676 11.0338 22.6857 11.1674C22.8588 10.2651 22.855 9.3593 22.6634 8.57001C22.4578 7.73125 22.0584 7.01376 21.4898 6.43618C20.8404 5.7854 19.9491 5.29743 18.8485 4.98585C17.802 4.68893 16.5508 4.54297 15.1225 4.54297H7.13876C6.50567 4.54297 5.97726 4.99255 5.89203 5.6205L2.55793 24.9138C2.51879 25.2071 2.73972 25.466 3.03314 25.466H8.36876L9.57196 18.133L12.4005 11.2188Z" fill="#28356A"/>
</svg> 